<svg xmlns="http://www.w3.org/2000/svg" width="472" height="126" viewBox="14 -172 944 251" role="img" aria-label="SNAP MASK"><defs><linearGradient id="lg" x1="0" x2="1"><stop offset="0" stop-color="#ff5470"/><stop offset="1" stop-color="#4f8dff"/></linearGradient></defs><path fill="url(#lg)" d="M151 -135Q151 -131 152 -130Q152 -129 152 -127Q152 -120 149 -114Q146 -109 141 -106Q137 -112 131 -116Q125 -119 118 -122Q112 -124 104 -126Q97 -127 90 -127Q83 -127 77 -126Q71 -125 66 -123Q61 -121 58 -118Q56 -115 56 -112Q56 -107 61 -103Q66 -98 73 -94Q80 -90 88 -85Q97 -81 105 -77Q115 -73 123 -68Q130 -64 135 -60Q140 -55 142 -48Q145 -42 145 -33Q145 -23 141 -14Q138 -5 131 1Q125 8 116 12Q106 15 95 15Q84 15 71 12Q58 8 46 2Q35 -3 28 -11Q20 -19 20 -27Q20 -31 22 -38Q25 -44 31 -51Q31 -45 37 -36Q43 -28 55 -21Q66 -15 78 -12Q89 -9 100 -9Q111 -9 118 -12Q125 -15 129 -18Q133 -22 134 -26Q136 -30 136 -33Q136 -37 132 -40Q129 -44 123 -48Q117 -51 109 -55Q102 -58 93 -62Q81 -68 72 -72Q62 -77 56 -82Q51 -88 48 -93Q45 -99 45 -106Q45 -117 52 -127Q59 -137 72 -142Q78 -145 85 -146Q93 -148 100 -148Q113 -148 125 -144Q138 -140 151 -135ZM192 -97Q197 -95 202 -90Q207 -84 209 -78Q207 -72 202 -65Q197 -57 193 -49Q188 -41 184 -34Q181 -27 180 -23Q183 -26 187 -30Q191 -35 195 -40Q199 -44 202 -48Q205 -51 207 -53Q211 -57 216 -62Q221 -68 227 -72Q232 -77 238 -80Q244 -84 249 -84Q254 -84 258 -80Q261 -77 263 -73Q263 -73 262 -72Q260 -71 257 -68Q254 -64 251 -58Q247 -52 244 -44Q241 -37 239 -30Q236 -22 236 -16Q236 -11 238 -9Q239 -8 241 -8Q244 -8 246 -9Q248 -10 250 -10Q251 -10 251 -8Q252 -7 252 -6Q250 -5 248 -3Q246 -2 243 -1Q241 1 238 1Q236 2 234 2Q229 2 225 0Q221 -1 219 -4Q217 -7 216 -11Q215 -15 215 -19Q215 -21 216 -24Q216 -27 217 -32Q219 -36 221 -41Q223 -47 226 -55Q226 -55 221 -52Q216 -49 210 -44Q201 -35 193 -26Q186 -17 178 -6Q174 0 170 4Q167 9 165 10Q160 8 158 3Q156 -1 155 -6Q155 -9 156 -15Q158 -21 160 -28Q161 -35 164 -43Q167 -51 170 -59Q178 -76 184 -86Q191 -96 192 -97ZM337 -81Q339 -81 342 -80Q344 -79 346 -78Q349 -77 350 -76Q352 -75 352 -74Q348 -65 344 -57Q341 -48 338 -41Q336 -33 335 -26Q333 -19 333 -14Q333 -9 335 -5Q336 -1 339 0Q336 2 332 3Q329 4 326 4Q315 4 315 -11Q315 -22 322 -42Q318 -33 313 -25Q308 -17 303 -10Q297 -4 292 0Q286 4 282 4Q274 4 270 -3Q265 -9 265 -20Q265 -31 270 -43Q275 -56 282 -66Q290 -77 298 -84Q307 -91 315 -92Q317 -91 320 -89Q322 -87 325 -85Q327 -83 329 -80Q330 -78 330 -76Q322 -75 314 -68Q305 -61 298 -52Q292 -43 287 -32Q283 -22 283 -12Q283 -9 286 -8Q291 -9 299 -18Q307 -26 317 -44Q319 -48 322 -52Q324 -57 327 -62Q330 -66 332 -71Q335 -76 337 -81ZM347 66Q344 65 344 60Q343 58 343 54Q343 50 343 46Q343 42 344 34Q345 27 348 18Q350 9 354 -2Q358 -13 362 -24Q367 -38 371 -48Q375 -58 378 -65Q381 -73 383 -77Q384 -82 385 -86Q386 -88 388 -91Q389 -95 391 -98Q393 -102 396 -105Q398 -108 400 -110Q407 -109 413 -106Q419 -103 420 -101Q418 -98 414 -93Q410 -87 407 -81Q404 -74 401 -68Q398 -61 397 -56Q399 -59 402 -63Q405 -67 412 -74Q419 -82 426 -86Q432 -90 437 -90Q444 -90 449 -86Q454 -81 454 -75Q454 -60 449 -46Q445 -32 436 -21Q432 -16 428 -12Q423 -8 418 -5Q413 -2 408 0Q403 1 400 1Q396 1 393 0Q391 -2 390 -4Q397 -8 405 -17Q412 -25 419 -36Q425 -46 430 -59Q434 -71 437 -84Q429 -80 423 -75Q417 -70 411 -63Q404 -54 399 -49Q395 -43 393 -39Q390 -36 388 -32Q386 -29 384 -24Q382 -18 378 -7Q374 3 370 16Q366 29 362 44Q359 59 355 73Q353 73 351 70Q350 68 349 67Q348 67 347 66ZM592 15Q592 15 592 15Q591 15 590 15Q587 15 584 14Q580 13 576 12Q573 11 570 9Q568 7 567 6Q567 3 567 0Q567 -3 567 -5Q567 -28 570 -52Q574 -77 581 -105Q582 -108 583 -112Q584 -116 585 -121Q580 -118 573 -109Q567 -101 560 -90Q552 -78 545 -65Q538 -51 532 -38Q526 -24 521 -10Q517 4 516 15Q506 12 503 10Q499 7 499 3Q499 -1 501 -7Q503 -14 507 -23Q511 -32 517 -43Q523 -54 530 -67Q538 -82 546 -94Q553 -107 561 -118Q568 -128 575 -136Q582 -143 589 -147Q592 -147 597 -146Q602 -144 606 -142Q611 -140 614 -138Q618 -136 618 -135Q615 -129 611 -118Q608 -107 604 -93Q600 -78 596 -62Q593 -47 591 -32Q595 -43 602 -55Q608 -67 614 -78Q621 -90 628 -101Q635 -112 642 -121Q649 -130 655 -137Q661 -144 665 -147Q668 -147 673 -146Q678 -144 682 -142Q687 -140 690 -138Q694 -136 694 -135Q688 -123 683 -107Q678 -91 675 -73Q671 -55 670 -37Q668 -19 668 -5Q668 -1 668 4Q668 9 668 15Q666 15 662 14Q658 13 654 12Q650 11 647 10Q644 8 643 6Q643 3 643 0Q643 -3 643 -5Q643 -28 646 -52Q650 -77 657 -105Q658 -108 659 -113Q660 -117 661 -123Q655 -120 648 -112Q641 -104 634 -93Q627 -81 620 -68Q612 -54 607 -40Q601 -25 597 -11Q593 3 592 15ZM766 -81Q768 -81 771 -80Q774 -79 776 -78Q778 -77 780 -76Q781 -75 781 -74Q777 -65 774 -57Q770 -48 768 -41Q766 -33 764 -26Q763 -19 763 -14Q763 -9 764 -5Q765 -1 768 0Q766 2 762 3Q758 4 755 4Q744 4 744 -11Q744 -22 752 -42Q748 -33 743 -25Q738 -17 732 -10Q727 -4 721 0Q716 4 711 4Q704 4 699 -3Q695 -9 695 -20Q695 -31 699 -43Q704 -56 712 -66Q719 -77 728 -84Q737 -91 745 -92Q747 -91 750 -89Q752 -87 754 -85Q757 -83 758 -80Q760 -78 760 -76Q752 -75 744 -68Q735 -61 728 -52Q721 -43 717 -32Q712 -22 712 -12Q712 -9 715 -8Q721 -9 729 -18Q736 -26 747 -44Q749 -48 752 -52Q754 -57 757 -62Q759 -66 762 -71Q764 -76 766 -81ZM860 -80Q860 -76 859 -72Q858 -68 856 -64Q855 -61 853 -59Q851 -57 850 -57Q847 -57 847 -60Q847 -60 848 -62Q848 -63 849 -64Q849 -66 850 -68Q850 -69 850 -70Q850 -73 849 -75Q848 -77 845 -77Q837 -77 833 -67Q829 -57 829 -38Q829 -36 829 -35Q833 -35 837 -36Q840 -36 843 -36Q843 -35 843 -34Q843 -32 843 -31Q838 -30 835 -30Q833 -29 831 -28Q830 -28 830 -27Q829 -26 829 -25Q829 -24 829 -22Q829 -20 829 -18Q829 -1 820 9Q811 19 795 21Q792 21 789 19Q786 18 784 16Q781 13 779 11Q777 8 776 5Q776 -2 779 -9Q782 -16 788 -22Q793 -27 801 -30Q808 -33 817 -34Q817 -39 816 -44Q815 -49 814 -53Q813 -58 812 -62Q811 -66 811 -70Q811 -76 813 -81Q815 -86 819 -91Q823 -95 827 -99Q832 -102 837 -103Q840 -102 843 -100Q847 -97 851 -93Q854 -89 857 -86Q860 -82 860 -80ZM794 12Q799 10 804 6Q808 2 811 -3Q814 -8 816 -13Q818 -18 818 -24Q814 -23 809 -20Q804 -17 800 -12Q796 -8 793 -4Q790 1 790 4Q790 9 794 12ZM861 -19Q861 -26 865 -39Q868 -52 874 -67Q880 -82 888 -98Q896 -114 903 -128Q911 -142 918 -153Q925 -163 930 -166Q933 -166 936 -164Q940 -162 942 -159Q945 -156 947 -152Q949 -149 949 -146Q940 -139 931 -128Q921 -116 913 -103Q905 -89 898 -74Q890 -59 886 -44Q892 -55 899 -64Q906 -73 913 -80Q920 -86 927 -90Q933 -93 939 -93Q948 -87 948 -76Q948 -70 946 -64Q943 -57 939 -52Q934 -46 929 -42Q923 -38 917 -37Q919 -30 922 -23Q926 -16 930 -9Q934 -2 940 4Q945 10 952 14Q951 16 949 18Q947 20 944 21Q942 23 938 24Q935 24 932 24Q926 24 922 19Q917 14 913 3Q910 -5 907 -16Q905 -28 902 -40Q905 -42 909 -45Q914 -49 918 -53Q936 -70 936 -83Q936 -84 934 -84Q930 -84 924 -81Q919 -77 913 -71Q907 -64 900 -56Q894 -47 888 -37Q886 -33 884 -28Q882 -23 880 -17Q879 -12 878 -6Q877 -1 877 4Q877 7 878 8Q872 8 870 5Q869 3 868 1Q866 0 865 -1Q863 -3 862 -7Q861 -12 861 -19Z"/></svg>